<?xml version="1.0" encoding="UTF-8" standalone="no"?>
<!-- Created with Inkscape (http://www.inkscape.org/) -->

<svg
   width="64.802071mm"
   height="64.709511mm"
   viewBox="0 0 64.802071 64.709511"
   version="1.1"
   id="svg5"
   inkscape:version="1.4.2 (ebf0e940d0, 2025-05-08)"
   sodipodi:docname="ass1.svg"
   xmlns:inkscape="http://www.inkscape.org/namespaces/inkscape"
   xmlns:sodipodi="http://sodipodi.sourceforge.net/DTD/sodipodi-0.dtd"
   xmlns="http://www.w3.org/2000/svg"
   xmlns:svg="http://www.w3.org/2000/svg"
   xmlns:ns5="http://www.iki.fi/pav/software/textext/">
  <sodipodi:namedview
     id="namedview7"
     pagecolor="#ffffff"
     bordercolor="#ffffff"
     borderopacity="1"
     inkscape:showpageshadow="false"
     inkscape:pageopacity="0"
     inkscape:pagecheckerboard="false"
     inkscape:deskcolor="#a1a1a1"
     inkscape:document-units="mm"
     showgrid="true"
     inkscape:zoom="1.8894343"
     inkscape:cx="153.4851"
     inkscape:cy="148.98639"
     inkscape:window-width="1594"
     inkscape:window-height="848"
     inkscape:window-x="0"
     inkscape:window-y="49"
     inkscape:window-maximized="1"
     inkscape:current-layer="layer1"
     showborder="true"
     shape-rendering="auto"
     showguides="true">
    <inkscape:grid
       id="grid1"
       units="cm"
       originx="-47.415654"
       originy="-8.8104206"
       spacingx="9.9999999"
       spacingy="9.9999999"
       empcolor="#3f3fff"
       empopacity="0.25098039"
       color="#3f3fff"
       opacity="0.1254902"
       empspacing="5"
       enabled="true"
       visible="true" />
    <sodipodi:guide
       position="-0.081821656,58.81042"
       orientation="1,0"
       id="guide5"
       inkscape:locked="false" />
    <sodipodi:guide
       position="-17.46963,94.936731"
       orientation="0,-1"
       id="guide12"
       inkscape:locked="false" />
    <sodipodi:guide
       position="-67.415655,21.803584"
       orientation="0,-1"
       id="guide1"
       inkscape:locked="false" />
    <sodipodi:guide
       position="-78.718442,12.329354"
       orientation="0,-1"
       id="guide2"
       inkscape:locked="false" />
  </sodipodi:namedview>
  <defs
     id="defs2">
    <marker
       style="overflow:visible"
       id="Triangle-2"
       refX="0"
       refY="0"
       orient="auto-start-reverse"
       inkscape:stockid="Triangle arrow"
       markerWidth="0.75"
       markerHeight="0.75"
       viewBox="0 0 1 1"
       inkscape:isstock="true"
       inkscape:collect="always"
       preserveAspectRatio="xMidYMid">
      <path
         transform="scale(0.5)"
         style="fill:context-stroke;fill-rule:evenodd;stroke:context-stroke;stroke-width:1pt"
         d="M 5.77,0 -2.88,5 V -5 Z"
         id="path135-8" />
    </marker>
  </defs>
  <g
     inkscape:label="Layer 1"
     inkscape:groupmode="layer"
     id="layer1"
     transform="translate(-47.415655,-8.8104043)">
    <path
       style="font-variation-settings:normal;fill:#95b9e4;fill-opacity:1;fill-rule:evenodd;stroke:#000000;stroke-width:0.5;stroke-linecap:butt;stroke-linejoin:round;stroke-miterlimit:4;stroke-dasharray:none;stroke-dashoffset:0;stroke-opacity:1;paint-order:markers fill stroke;stop-color:#000000"
       d="m 78.351047,62.83332 h 1e-5 -30.659102 l -0.0263,2.033177 h 1.96773 v 8.403419 h 2.03762 l 0.0288,-8.403419 h 2.04503 l -0.01,-2.033177 h 1.92873 l 0.0288,2.033177 h 2.16462 l -0.0487,8.403419 h 1.886725 l 0.06759,-8.403419 h 1.967491 l -0.0099,-2.033177 h 1.686146 l 0.07752,7.17962 c 0,0 0.430867,3.218647 3.271756,3.256976 2.74056,0 3.28069,-3.410381 3.28069,-3.410381 l -7.3e-4,-7.026215 h 1.520057 c 3.4e-4,0.856308 0.32008,5.08013 2.01935,5.292239 -0.0305,3.515457 1.61592,5.161469 3.705717,5.14439 l 0.18424,-10.436629 z"
       id="path4-7-6-2"
       sodipodi:nodetypes="cccccccccccccccccccccccccccc" />
    <path
       style="font-variation-settings:normal;fill:#95b9e4;fill-opacity:1;fill-rule:evenodd;stroke:#000000;stroke-width:0.5;stroke-linecap:butt;stroke-linejoin:round;stroke-miterlimit:4;stroke-dasharray:none;stroke-dashoffset:0;stroke-opacity:1;paint-order:markers fill stroke;stop-color:#000000"
       d="m 81.282328,62.83332 h -6e-6 30.659108 l 0.0263,2.033177 H 110 v 8.403419 h -2.03762 l -0.0288,-8.403419 h -2.04503 l 0.01,-2.033177 h -1.92873 l -0.0288,2.033177 h -2.16462 l 0.0487,8.403419 h -1.886725 l -0.06759,-8.403419 h -1.967491 l 0.0099,-2.033177 h -1.686146 l -0.07752,7.17962 c 0,0 -0.430867,3.218647 -3.271752,3.256976 -2.740562,0 -3.280695,-3.410381 -3.280695,-3.410381 l 7.27e-4,-7.026215 h -1.520053 c -3.42e-4,0.856308 -0.320085,5.08013 -2.019349,5.292239 0.03046,3.515457 -1.615921,5.161469 -3.705727,5.14439 L 82.168437,62.83332 Z"
       id="path4-7-6"
       sodipodi:nodetypes="cccccccccccccccccccccccccccc" />
    <path
       id="path4-7-67"
       style="font-variation-settings:normal;fill:#95b9e4;fill-opacity:1;fill-rule:evenodd;stroke:#000000;stroke-width:0.5;stroke-linecap:butt;stroke-linejoin:round;stroke-miterlimit:4;stroke-dasharray:none;stroke-dashoffset:0;stroke-opacity:1;paint-order:markers fill stroke;stop-color:#000000"
       d="m 58.929452,41.666779 c -0.47502,13.94566 13.706039,16.915531 21.070549,10.416935 7.3645,6.498596 21.545559,3.528725 21.070539,-10.416935 H 80.000001 Z" />
    <path
       id="path4-7"
       style="font-variation-settings:normal;fill:#95b9e4;fill-opacity:1;fill-rule:evenodd;stroke:#000000;stroke-width:0.5;stroke-linecap:butt;stroke-linejoin:round;stroke-miterlimit:4;stroke-dasharray:none;stroke-dashoffset:0;stroke-opacity:1;paint-order:markers fill stroke;stop-color:#000000"
       d="m 50.606446,20.500112 c 5.859353,0.06546 7.035382,11.951222 10.048999,13.983126 3.030247,2.043118 4.582707,0.599919 6.844544,0 2.26184,-0.599919 4.084177,-2.991669 6.250264,-3.56619 2.16609,-0.574521 6.249748,-0.59578 6.249748,-0.59578 0,0 4.08366,0.02126 6.24975,0.59578 2.16609,0.574521 3.98842,2.966271 6.250257,3.56619 2.26184,0.599919 3.814297,2.043118 6.844547,0 3.013605,-2.031904 4.189635,-13.917668 10.048985,-13.983126 H 105.00001 80.000001 54.999977 Z"
       sodipodi:nodetypes="cssscsssccccc" />
    <path
       style="font-variation-settings:normal;opacity:1;vector-effect:none;fill:#ef2929;fill-opacity:1;fill-rule:evenodd;stroke:#ef2929;stroke-width:1;stroke-linecap:butt;stroke-linejoin:miter;stroke-miterlimit:4;stroke-dasharray:none;stroke-dashoffset:0;stroke-opacity:1;-inkscape-stroke:none;paint-order:markers fill stroke;stop-color:#000000;stop-opacity:1"
       d="M 65.000003,20.499984 H 94.999998"
       id="path7"
       sodipodi:nodetypes="cc" />
    <path
       style="font-variation-settings:normal;vector-effect:none;fill:#ef2929;fill-opacity:1;fill-rule:evenodd;stroke:#ef2929;stroke-width:1;stroke-linecap:butt;stroke-linejoin:miter;stroke-miterlimit:4;stroke-dasharray:none;stroke-dashoffset:0;stroke-opacity:1;-inkscape-stroke:none;paint-order:markers fill stroke;stop-color:#000000"
       d="M 65.000003,41.666652 H 94.999998"
       id="path7-3"
       sodipodi:nodetypes="cc" />
    <path
       style="font-variation-settings:normal;vector-effect:none;fill:#ef2929;fill-opacity:1;fill-rule:evenodd;stroke:#ef2929;stroke-width:1;stroke-linecap:butt;stroke-linejoin:miter;stroke-miterlimit:4;stroke-dasharray:none;stroke-dashoffset:0;stroke-opacity:1;-inkscape-stroke:none;paint-order:markers fill stroke;stop-color:#000000"
       d="M 65.000003,62.83332 H 94.999998"
       id="path7-3-9"
       sodipodi:nodetypes="cc" />
    <path
       style="font-variation-settings:normal;vector-effect:none;fill:none;fill-opacity:1;fill-rule:evenodd;stroke:#000000;stroke-width:1;stroke-linecap:round;stroke-linejoin:miter;stroke-miterlimit:4;stroke-dasharray:none;stroke-dashoffset:0;stroke-opacity:1;-inkscape-stroke:none;marker-end:url(#Triangle-2);paint-order:markers fill stroke;stop-color:#000000"
       d="m 80.000002,20.499984 v -5.76668"
       id="path1-9"
       sodipodi:nodetypes="cc" />
    <text
       xml:space="preserve"
       style="font-style:normal;font-variant:normal;font-weight:normal;font-stretch:normal;font-size:6.35px;line-height:1;font-family:NewComputerModern10;-inkscape-font-specification:NewComputerModern10;text-align:justify;text-decoration:none;text-decoration-line:none;text-decoration-color:#000000;fill:#000000;stroke:#000000;stroke-width:1;stroke-linecap:butt;stroke-linejoin:miter;stroke-dasharray:4, 2;stroke-opacity:1;-inkscape-stroke:none;paint-order:markers fill stroke;stop-color:#000000"
       x="78.349007"
       y="11.617101"
       id="text2-4-3-9"><tspan
         sodipodi:role="line"
         id="tspan2-4-3-6"
         style="font-style:italic;font-variant:normal;font-weight:normal;font-stretch:normal;font-size:6.35px;font-family:NewComputerModern10;-inkscape-font-specification:NewComputerModern10;fill:#000000;stroke:none;stroke-width:1"
         x="78.349007"
         y="11.617101">z</tspan></text>
    <circle
       style="font-variation-settings:normal;vector-effect:none;fill:#000000;fill-opacity:1;fill-rule:evenodd;stroke:none;stroke-width:1;stroke-linecap:butt;stroke-linejoin:miter;stroke-miterlimit:4;stroke-dasharray:none;stroke-dashoffset:0;stroke-opacity:1;-inkscape-stroke:none;paint-order:markers fill stroke;stop-color:#000000"
       id="path9-1"
       cx="87.149658"
       cy="31.20369"
       r="1.0795045" />
    <g
       id="g8461"
       transform="matrix(0.56457,0,0,0.56457,30.800866,-6.5349666)"
       ns5:version="1.12.0"
       ns5:texconverter="typst"
       ns5:pdfconverter="inkscape"
       ns5:text="$-b(r')$\n\n\n\n\n"
       ns5:preamble="default_preamble_typst.typ"
       ns5:scale="1.6003539"
       ns5:alignment="middle center"
       ns5:inkscapeversion="1.4.2"
       ns5:jacobian_sqrt="0.56457">
      <g
         id="g4014">
        <g
           class="typst-group"
           id="g4000">
          <g
             id="g1551">
            <g
               class="typst-text"
               transform="matrix(1,0,0,-1,70.8661,78.3791)"
               id="g4022">
              <g
                 id="g2711">
                <path
                   d="M 0,0 M 7.678,2.97 H 0.88 C 0.704,2.97 0.616,2.893 0.616,2.75 0.616,2.6069998 0.704,2.5299999 0.88,2.5299999 h 6.798 c 0.1760001,0 0.2639999,0.077 0.2639999,0.2200001 C 7.9419999,2.8819999 7.81,2.97 7.678,2.97 Z"
                   id="path7450" />
              </g>
            </g>
            <g
               class="typst-text"
               transform="matrix(1,0,0,-1,79.4241,78.3791)"
               id="g8251">
              <g
                 id="g1297">
                <path
                   d="M 0,0 M 3.091,4.895 C 2.6949999,4.895 2.2989999,4.7080002 1.914,4.3340001 l 0.7590001,3.1349998 c -0.022,0.099 -0.055,0.165 -0.1870001,0.165 -0.3630001,0 -1.1660001,-0.099 -1.309,-0.1099997 -0.1650001,-0.022 -0.253,-0.099 -0.253,-0.2640004 0,-0.1099997 0.099,-0.165 0.308,-0.165 0.209,0 0.495,0.011 0.495,-0.1429996 0,-0.044 -0.055,-0.2640005 -0.1540001,-0.671 l -0.87999991,-3.542 C 0.572,2.277 0.51699999,1.9030001 0.51699999,1.6280001 0.51699999,0.68200003 1.023,-0.12100003 1.925,-0.12100003 c 0.7149999,0 1.342,0.363 1.892,1.1 C 4.3119999,1.661 4.5650001,2.376 4.5650001,3.1129998 4.5650001,4.07 4.0040002,4.8949999 3.091,4.895 Z M 3.069,4.5650001 C 3.4979999,4.5650001 3.707,4.2350002 3.707,3.586 3.707,3.289 3.641,2.8929999 3.5090001,2.398 3.2669999,1.4629999 2.9479999,0.82499998 2.5629999,0.48399998 c -0.2200001,-0.187 -0.4289999,-0.275 -0.638,-0.275 -0.451,0 -0.671,0.352 -0.671,1.05600002 0,0.242 0.055,0.605 0.1650001,1.0890001 l 0.2419999,0.9899998 c 0.033,0.1650002 0.088,0.286 0.154,0.374 0.429,0.5609999 0.847,0.8470001 1.2540001,0.8470002 z"
                   id="path9733" />
              </g>
            </g>
            <g
               class="typst-text"
               transform="matrix(1,0,0,-1,84.2971,78.3791)"
               id="g3905">
              <g
                 id="g7851">
                <path
                   d="m 0,0 m 3.498,-2.728 c 0.099,0 0.154,0.055 0.154,0.154 0,0.033 -0.022,0.077 -0.055,0.1209998 -0.5719998,0.4400001 -1.0339999,1.1660001 -1.375,2.16700005 -0.297,0.869 -0.4509999,1.72699995 -0.4509999,2.57400005 v 0.9239998 c 0,0.8470001 0.1539999,1.7049999 0.4509999,2.574 C 2.5630001,6.7870001 3.0250002,7.5129999 3.597,7.953 3.63,7.986 3.652,8.03 3.652,8.0740003 c 0,0.099 -0.055,0.1539994 -0.154,0.1539994 -0.011,0 -0.044,-0.011 -0.077,-0.033 C 2.761,7.6890001 2.2110001,6.941 1.7600001,5.9400001 1.3310001,4.9829998 1.111,4.0809999 1.111,3.2119999 V 2.2880001 C 1.111,1.419 1.3310001,0.51699998 1.7600001,-0.44000012 2.2110001,-1.441 2.761,-2.1889999 3.4210001,-2.695 c 0.033,-0.022 0.066,-0.033 0.077,-0.033 z"
                   id="path524" />
              </g>
            </g>
            <g
               class="typst-text"
               transform="matrix(1,0,0,-1,88.5761,78.3791)"
               id="g7493">
              <g
                 id="g2294">
                <path
                   d="m 0,0 m 4.796,4.114 c 0,0.4620004 -0.4510002,0.7480001 -0.9349999,0.7480001 -0.5390001,0 -0.99,-0.2529997 -1.3640001,-0.77 -0.1099999,0.4289999 -0.484,0.77 -1.0009999,0.77 -0.4510001,0 -0.78100014,-0.3520002 -1.01200014,-1.0669999 -0.10999998,-0.3630001 -0.16499999,-0.572 -0.16499999,-0.638 0,-0.099 0.055,-0.154 0.176,-0.154 0.055,0 0.088,0.011 0.12099999,0.033 0.055,0.099 0.088,0.1759999 0.099,0.253 0.19800001,0.836 0.45100004,1.2539997 0.74799994,1.2539997 0.187,0 0.286,-0.1539998 0.286,-0.4619999 0,-0.1429999 -0.055,-0.4399998 -0.165,-0.8909998 L 0.95699995,0.69300021 c -0.033,-0.143 -0.099,-0.42900002 -0.099,-0.48400003 0,-0.22 0.12099999,-0.32999998 0.35200005,-0.32999998 0.2199999,0 0.3629999,0.11 0.4399999,0.32999998 l 0.209,0.79200002 c 0.121,0.473 0.198,0.7809999 0.231,0.9239999 l 0.341,1.408 c 0.022,0.088 0.1099999,0.231 0.2530001,0.4400001 0.2969999,0.418 0.638,0.7699997 1.177,0.7699997 0.1319999,0 0.2420001,-0.022 0.341,-0.077 -0.3300001,-0.099 -0.4950001,-0.3080001 -0.4950001,-0.605 0,-0.286 0.1540001,-0.4290002 0.451,-0.4290002 0.3629999,0 0.638,0.319 0.6380001,0.6820003 z"
                   id="path4855" />
              </g>
            </g>
            <g
               class="typst-text"
               transform="matrix(1,0,0,-1,93.6801,74.3861)"
               id="g1090">
              <g
                 id="g7254">
                <path
                   d="m 0,0 m 2.1868,4.2273 c -0.1925,0 -0.3234,-0.077 -0.3927,-0.2387002 L 0.50049994,0.73919975 H 0.84699992 L 2.5563999,3.5650997 c 0.0385,0.0693 0.0616,0.1463001 0.0616,0.231 C 2.6179999,4.0270999 2.4177998,4.2273 2.1868,4.2273 Z"
                   id="path5837" />
              </g>
            </g>
            <g
               class="typst-text"
               transform="matrix(1,0,0,-1,97.43,78.3791)"
               id="g4647">
              <g
                 id="g5499">
                <path
                   d="m 0,0 m 0.858,-2.695 c 0.66,0.506 1.21,1.254 1.661,2.2549999 0.4289999,0.957 0.6489999,1.859 0.6489999,2.7280002 v 0.9239998 c 0,0.869 -0.22,1.7709999 -0.6489999,2.7280002 C 2.068,6.941 1.518,7.6890002 0.858,8.1949997 c -0.033,0.022 -0.066,0.033 -0.077,0.033 -0.099,0 -0.154,-0.054999 -0.154,-0.1539993 0,-0.044001 0.022,-0.088 0.055,-0.1210003 C 1.254,7.513 1.7159999,6.7870002 2.057,5.7859998 2.3540002,4.9169998 2.508,4.059 2.508,3.2119998 V 2.288 C 2.508,1.4409999 2.3540002,0.58299977 2.057,-0.28600013 1.716,-1.287 1.254,-2.0130001 0.68200001,-2.4530001 c -0.033,-0.044 -0.055,-0.088 -0.055,-0.1209998 0,-0.099 0.055,-0.1540001 0.15400004,-0.1540001 0.011,0 0.044,0.011 0.077,0.033 z"
                   id="path5453" />
              </g>
            </g>
          </g>
        </g>
      </g>
      <defs
         id="defs6261">
        <symbol
           id="symbol2393"
           overflow="visible">
          <path
             d="M 0,0 M 7.678,2.97 H 0.88 C 0.704,2.97 0.616,2.893 0.616,2.75 0.616,2.6069998 0.704,2.5299999 0.88,2.5299999 h 6.798 c 0.1760001,0 0.2639999,0.077 0.2639999,0.2200001 C 7.9419999,2.8819999 7.81,2.97 7.678,2.97 Z"
             id="path4651" />
        </symbol>
        <symbol
           id="symbol2365"
           overflow="visible">
          <path
             d="M 0,0 M 3.091,4.895 C 2.6949999,4.895 2.2989999,4.7080002 1.914,4.3340001 l 0.7590001,3.1349998 c -0.022,0.099 -0.055,0.165 -0.1870001,0.165 -0.3630001,0 -1.1660001,-0.099 -1.309,-0.1099997 -0.1650001,-0.022 -0.253,-0.099 -0.253,-0.2640004 0,-0.1099997 0.099,-0.165 0.308,-0.165 0.209,0 0.495,0.011 0.495,-0.1429996 0,-0.044 -0.055,-0.2640005 -0.1540001,-0.671 l -0.87999991,-3.542 C 0.572,2.277 0.51699999,1.9030001 0.51699999,1.6280001 0.51699999,0.68200003 1.023,-0.12100003 1.925,-0.12100003 c 0.7149999,0 1.342,0.363 1.892,1.1 C 4.3119999,1.661 4.5650001,2.376 4.5650001,3.1129998 4.5650001,4.07 4.0040002,4.8949999 3.091,4.895 Z M 3.069,4.5650001 C 3.4979999,4.5650001 3.707,4.2350002 3.707,3.586 3.707,3.289 3.641,2.8929999 3.5090001,2.398 3.2669999,1.4629999 2.9479999,0.82499998 2.5629999,0.48399998 c -0.2200001,-0.187 -0.4289999,-0.275 -0.638,-0.275 -0.451,0 -0.671,0.352 -0.671,1.05600002 0,0.242 0.055,0.605 0.1650001,1.0890001 l 0.2419999,0.9899998 c 0.033,0.1650002 0.088,0.286 0.154,0.374 0.429,0.5609999 0.847,0.8470001 1.2540001,0.8470002 z"
             id="path4810" />
        </symbol>
        <symbol
           id="symbol8519"
           overflow="visible">
          <path
             d="m 0,0 m 3.498,-2.728 c 0.099,0 0.154,0.055 0.154,0.154 0,0.033 -0.022,0.077 -0.055,0.1209998 -0.5719998,0.4400001 -1.0339999,1.1660001 -1.375,2.16700005 -0.297,0.869 -0.4509999,1.72699995 -0.4509999,2.57400005 v 0.9239998 c 0,0.8470001 0.1539999,1.7049999 0.4509999,2.574 C 2.5630001,6.7870001 3.0250002,7.5129999 3.597,7.953 3.63,7.986 3.652,8.03 3.652,8.0740003 c 0,0.099 -0.055,0.1539994 -0.154,0.1539994 -0.011,0 -0.044,-0.011 -0.077,-0.033 C 2.761,7.6890001 2.2110001,6.941 1.7600001,5.9400001 1.3310001,4.9829998 1.111,4.0809999 1.111,3.2119999 V 2.2880001 C 1.111,1.419 1.3310001,0.51699998 1.7600001,-0.44000012 2.2110001,-1.441 2.761,-2.1889999 3.4210001,-2.695 c 0.033,-0.022 0.066,-0.033 0.077,-0.033 z"
             id="path6707" />
        </symbol>
        <symbol
           id="symbol3842"
           overflow="visible">
          <path
             d="m 0,0 m 4.796,4.114 c 0,0.4620004 -0.4510002,0.7480001 -0.9349999,0.7480001 -0.5390001,0 -0.99,-0.2529997 -1.3640001,-0.77 -0.1099999,0.4289999 -0.484,0.77 -1.0009999,0.77 -0.4510001,0 -0.78100014,-0.3520002 -1.01200014,-1.0669999 -0.10999998,-0.3630001 -0.16499999,-0.572 -0.16499999,-0.638 0,-0.099 0.055,-0.154 0.176,-0.154 0.055,0 0.088,0.011 0.12099999,0.033 0.055,0.099 0.088,0.1759999 0.099,0.253 0.19800001,0.836 0.45100004,1.2539997 0.74799994,1.2539997 0.187,0 0.286,-0.1539998 0.286,-0.4619999 0,-0.1429999 -0.055,-0.4399998 -0.165,-0.8909998 L 0.95699995,0.69300021 c -0.033,-0.143 -0.099,-0.42900002 -0.099,-0.48400003 0,-0.22 0.12099999,-0.32999998 0.35200005,-0.32999998 0.2199999,0 0.3629999,0.11 0.4399999,0.32999998 l 0.209,0.79200002 c 0.121,0.473 0.198,0.7809999 0.231,0.9239999 l 0.341,1.408 c 0.022,0.088 0.1099999,0.231 0.2530001,0.4400001 0.2969999,0.418 0.638,0.7699997 1.177,0.7699997 0.1319999,0 0.2420001,-0.022 0.341,-0.077 -0.3300001,-0.099 -0.4950001,-0.3080001 -0.4950001,-0.605 0,-0.286 0.1540001,-0.4290002 0.451,-0.4290002 0.3629999,0 0.638,0.319 0.6380001,0.6820003 z"
             id="path5381" />
        </symbol>
        <symbol
           id="symbol9200"
           overflow="visible">
          <path
             d="m 0,0 m 2.1868,4.2273 c -0.1925,0 -0.3234,-0.077 -0.3927,-0.2387002 L 0.50049994,0.73919975 H 0.84699992 L 2.5563999,3.5650997 c 0.0385,0.0693 0.0616,0.1463001 0.0616,0.231 C 2.6179999,4.0270999 2.4177998,4.2273 2.1868,4.2273 Z"
             id="path5712" />
        </symbol>
        <symbol
           id="symbol8923"
           overflow="visible">
          <path
             d="m 0,0 m 0.858,-2.695 c 0.66,0.506 1.21,1.254 1.661,2.2549999 0.4289999,0.957 0.6489999,1.859 0.6489999,2.7280002 v 0.9239998 c 0,0.869 -0.22,1.7709999 -0.6489999,2.7280002 C 2.068,6.941 1.518,7.6890002 0.858,8.1949997 c -0.033,0.022 -0.066,0.033 -0.077,0.033 -0.099,0 -0.154,-0.054999 -0.154,-0.1539993 0,-0.044001 0.022,-0.088 0.055,-0.1210003 C 1.254,7.513 1.7159999,6.7870002 2.057,5.7859998 2.3540002,4.9169998 2.508,4.059 2.508,3.2119998 V 2.288 C 2.508,1.4409999 2.3540002,0.58299977 2.057,-0.28600013 1.716,-1.287 1.254,-2.0130001 0.68200001,-2.4530001 c -0.033,-0.044 -0.055,-0.088 -0.055,-0.1209998 0,-0.099 0.055,-0.1540001 0.15400004,-0.1540001 0.011,0 0.044,0.011 0.077,0.033 z"
             id="path9066" />
        </symbol>
      </defs>
    </g>
  </g>
</svg>
